#!OML:ASF \\sashay\E\Suitcase\Project 1\Capture day 1\Session 1\Male1.ASF
:FULLY-SPECIFIED
:DEGREES
25
root 1.24053 17.5339 -35.3313 8.80921 -0.32902 -5.09539
lowerback -6.99214 -0.378964 -0.312022
upperback -2.77426 -0.553371 4.19438
thorax 1.09959 -0.258483 4.47238
lowerneck -19.5746 -0.975453 -1.31249
upperneck 15.4453 -1.01229 0.276356
head 8.00436 -0.531122 0.180294
rclavicle 7.09413e-015 7.55382e-015
rhumerus -31.5547 -0.787559 -81.5835
rradius 26.1461
rwrist -12.4302
rhand -14.4621 16.9905
rfingers 7.12502
rthumb 11.6835 -12.6637
lclavicle 7.09413e-015 7.55382e-015
lhumerus -36.5054 7.66453 85.4928
lradius 30.0251
lwrist -4.87237
lhand -4.31949 42.6309
lfingers 7.12502
lthumb 21.4471 71.4637
rfemur -9.83572 3.01175 22.0923
rtibia 22.4291
rfoot -18.7201 -10.2369
rtoes 1.76049
lfemur -10.6932 -3.54957 -13.0642
ltibia 25.7081
lfoot -21.3453 11.3391
ltoes -11.2042
26
root 1.24094 17.5362 -35.3305 8.80232 -0.34239 -5.09262
lowerback -6.92387 -0.298251 -0.311636
upperback -2.74 -0.444679 4.15135
thorax 1.08807 -0.204346 4.43565
lowerneck -19.7901 -1.03348 -1.14436
upperneck 15.4221 -1.10268 0.106974
head 8.03217 -0.581116 0.084149
rclavicle -1.63423e-014 -1.11319e-014
rhumerus -31.4624 -1.16209 -81.4526
rradius 26.106
rwrist -12.4388
rhand -14.0384 16.8491
rfingers 7.12502
rthumb 12.0921 -12.7815
lclavicle -1.63423e-014 -1.11319e-014
lhumerus -36.3312 7.42578 85.5968
lradius 30.0956
lwrist -4.92468
lhand -4.03741 43.2769
lfingers 7.12502
lthumb 21.718 72.0786
rfemur -9.87799 3.12055 22.0687
rtibia 22.4008
rfoot -18.7033 -10.3145
rtoes 0.8187
lfemur -10.6821 -3.22666 -13.0636
ltibia 25.6858
lfoot -21.2724 11.0209
ltoes -10.7369
27
root 1.24183 17.5273 -35.3316 8.81492 -0.380139 -5.09884
lowerback -6.9905 -0.326634 -0.347402
upperback -2.72893 -0.482884 4.20212
thorax 1.14012 -0.223905 4.50625
lowerneck -19.6825 -1.01495 -1.31718
upperneck 15.3543 -1.04818 0.20171
head 7.99224 -0.555848 0.151355
rclavicle -7.72309e-015 1.47101e-014
rhumerus -31.4476 -0.982032 -81.4841
rradius 26.0511
rwrist -12.4697
rhand -15.1203 16.7376
rfingers 7.12502
rthumb 11.0487 -12.9516
lclavicle -7.72309e-015 1.47101e-014
lhumerus -36.3859 7.67446 85.514
lradius 30.1243
lwrist -5.06696
lhand -3.76944 43.4339
lfingers 7.12502
lthumb 21.9754 72.2056
rfemur -9.86832 3.12735 22.0849
rtibia 22.4671
rfoot -18.911 -10.2457
rtoes 1.09288
lfemur -10.6771 -3.59738 -13.0606
ltibia 25.6735
lfoot -21.3369 11.2806
ltoes -10.17
28
root 1.24302 17.5345 -35.3294 8.81622 -0.391154 -5.09554
lowerback -6.99969 -0.313337 -0.0950653
upperback -2.68568 -0.479773 3.99394
thorax 1.18654 -0.22509 4.14487
lowerneck -19.7974 -0.954791 -0.939529
upperneck 15.3666 -1.05706 0.122669
head 8.01331 -0.545336 0.0619272
rclavicle 1.17749e-014 -6.75868e-015
rhumerus -31.4203 -1.39353 -81.6756
rradius 26.1158
rwrist -12.1833
rhand -14.2566 16.9787
rfingers 7.12502
rthumb 11.8817 -12.6642
lclavicle 1.17749e-014 -6.75868e-015
lhumerus -36.2153 7.51789 85.2272
lradius 29.9619
lwrist -4.96545
lhand -3.92572 43.3655
lfingers 7.12502
lthumb 21.8253 72.1548
rfemur -9.89302 3.19822 22.0686
rtibia 22.4668
rfoot -18.8161 -10.2882
rtoes 1.35587
lfemur -10.6644 -3.28963 -13.067
ltibia 25.6388
lfoot -21.3353 11.0048
ltoes -10.1756
29
root 1.24325 17.5284 -35.3322 8.86878 -0.363321 -5.08303
lowerback -7.01411 -0.383129 -0.106227
upperback -2.82788 -0.568459 4.04239
thorax 1.05468 -0.266629 4.19496
lowerneck -19.3984 -0.917328 -1.20351
upperneck 15.3585 -0.965572 0.272283
head 7.94407 -0.502872 0.167821
rclavicle 1.33013e-014 -1.19271e-015
rhumerus -31.6882 -0.976293 -81.7228
rradius 26.1655
rwrist -12.3954
rhand -14.8674 17.0836
rfingers 7.12502
rthumb 11.2927 -12.5924
lclavicle 1.33013e-014 -1.19271e-015
lhumerus -36.5864 7.77887 85.1284
lradius 29.932
lwrist -4.97718
lhand -4.16706 43.0862
lfingers 7.12502
lthumb 21.5935 71.9023
rfemur -9.96523 3.05977 22.0574
rtibia 22.5054
rfoot -18.8099 -10.2017
rtoes 0.840615
lfemur -10.7359 -3.39387 -13.0629
ltibia 25.6184
lfoot -21.3704 11.1598
ltoes -10.3628
30
root 1.24445 17.534 -35.3314 8.84537 -0.361696 -5.06985
lowerback -6.99757 -0.346965 -0.0984365
upperback -2.7688 -0.521784 4.00887
thorax 1.10275 -0.244439 4.15911
lowerneck -19.4817 -0.91948 -1.12253
upperneck 15.2643 -0.981715 0.230102
head 7.92624 -0.509732 0.138431
rclavicle 8.26043e-015 -1.23246e-014
rhumerus -31.492 -1.24393 -81.6388
rradius 25.9506
rwrist -12.3053
rhand -14.2677 17.261
rfingers 7.12502
rthumb 11.8709 -12.3825
lclavicle 8.26043e-015 -1.23246e-014
lhumerus -36.4002 7.6609 85.173
lradius 29.9122
lwrist -4.99962
lhand -3.97088 43.0948
lfingers 7.12502
lthumb 21.7819 71.8891
rfemur -9.95029 3.0403 22.0318
rtibia 22.487
rfoot -18.7665 -10.2234
rtoes 1.575
lfemur -10.6898 -3.26808 -13.0917
ltibia 25.5907
lfoot -21.2708 10.8479
ltoes -10.0524
